<?xml version="1.0" encoding="utf-8"?>
<!-- Generator: Adobe Illustrator 28.0.0, SVG Export Plug-In . SVG Version: 6.00 Build 0)  -->
<svg version="1.1" id="Capa_1" xmlns="http://www.w3.org/2000/svg" xmlns:xlink="http://www.w3.org/1999/xlink" x="0px" y="0px"
	 viewBox="0 0 1080 1080" style="enable-background:new 0 0 1080 1080;" xml:space="preserve">
<style type="text/css">
	.st0{fill:#ED1C24;}
	.st1{fill:#FFFFFF;}
</style>
<g>
	<path d="M-1010.26-687.58h-58.89l15.15-56.6h184.67l-15.15,56.6h-58.89l-38.59,143.51h-66.89L-1010.26-687.58z"/>
	<path d="M-730.99-744.18h62.61l45.45,95.48l25.73-95.48h66.32l-53.74,200.11h-59.46l-47.46-99.48l-26.87,99.48h-66.32
		L-730.99-744.18z"/>
	<path d="M-480.61-687.58h-58.73l15.15-56.6h184.52l-15.15,56.6h-58.89l-38.59,143.51h-66.89L-480.61-687.58z"/>
	<path d="M-379.12-576.38l38.31-45.74c22.87,19.15,46.31,28.3,67.47,28.3c8.58,0,14.58-3.14,14.58-8.86
		c0-6.29-3.72-8.29-32.88-19.15c-37.16-13.72-54.6-26.87-54.6-56.32c0-38.59,35.45-70.04,90.05-70.04
		c35.73,0,67.47,11.43,89.19,30.02l-38.31,45.74c-15.15-12.29-36.59-22.3-57.75-22.3c-8.58,0-14.58,2.29-14.58,8
		c0,6,4.29,7.15,32.02,17.44c34.02,12.58,55.75,26.87,55.75,57.46c0,40.31-33.16,71.75-90.62,71.75
		C-320.23-540.07-354.82-554.36-379.12-576.38z"/>
	<g>
		<path d="M-743.58-742.33c-27.73,0-55.42-0.18-83.21,0.1c-9.33,0.09-19.03,2.87-28.93,10.33c-4.42,3.33-8.52,7.52-11.44,13.75
			c-0.97,2.08-1.8,4.36-2.33,6.54c-11.16,46.14-22.16,92.28-33.45,138.42c-2.35,9.61-1.17,16.14,2.64,21.18
			c4.51,5.98,10.46,9.02,17.06,10.7c1.91,0.49,3.88,0.8,5.83,1.2c2.46,0,4.92,0,7.38,0c2.86-0.53,5.71-0.9,8.6-1.63
			c7.01-1.76,14.01-4.88,20.96-10.61c0.41-0.33,0.86-0.61,1.2-1.05c2.14-2.7,4.15-3.03,6.36-3.01c14.74,0.12,29.52,0.06,44.28,0.06
			c0.52,0,1.05,0,1.69,0c14.93-62,29.84-123.89,44.8-185.99C-742.65-742.33-743.11-742.33-743.58-742.33z M-859.01-719.12
			c2.87-3.4,6.01-5.54,9.18-7.32c7.82-4.38,15.3-5.69,22.64-5.91c7.24,0.21,14.13,1.43,19.78,5.92c1.83,1.45,3.53,3.29,4.85,5.52
			c3.18,5.39,1.53,11.68-4.27,17.11c-5.3,4.96-10.74,7.51-16.18,9.11c-10.96,3.21-21.04,2.93-29.98-1.53
			c-3.82-1.91-7.24-4.55-9.16-9.59C-863.8-710.16-862.74-714.7-859.01-719.12z M-791.21-566.52c-12.87,0-25.71,0-38.49,0
			c0.39-1.62,0.75-3.12,1.11-4.61c11.14-46.27,22.25-92.54,33.47-138.81c1.94-7.98,1.25-14.04-1.56-18.93
			c-0.64-1.11-1.36-2.1-2.2-3.4c16.05,0,31.77,0,47.59,0C-764.6-677.01-777.89-621.83-791.21-566.52z"/>
		<path d="M-845.66-703.96c6.34,4.16,13.77,4.06,22.02,0.7c0.97-0.39,1.96-1.03,2.92-1.74c5.34-3.97,7.02-11.27,3.46-15.06
			c-3.18-3.38-7.52-3.78-12.02-4.04c-1.31,0.11-2.73,0.15-4.18,0.38c-3.19,0.52-6.41,1.39-9.69,3.8
			c-5.15,3.78-6.92,10.79-3.73,14.77C-846.52-704.68-846.12-704.26-845.66-703.96z M-824.31-712.31
			c-5.63,1.88-10.58,1.87-15.27,0.03C-836.52-714.46-826.75-714.52-824.31-712.31z"/>
	</g>
	<g>
		<polygon class="st0" points="-519.3,-499.24 -518.96,-499.23 -514.49,-506.21 -513.7,-499.16 -497.76,-498.94 -501.69,-525.04 
			-517.57,-525.04 -550.7,-476.77 -533.25,-476.77 -529.07,-483.21 -512.3,-483.21 -511.48,-476.77 -494.43,-476.77 
			-496.67,-491.68 -524.59,-491.47 		"/>
	</g>
	<g>
		<polygon class="st0" points="-461.91,-511.14 -447.81,-511.14 -444.18,-524.69 -488.4,-524.69 -492.03,-511.14 -477.93,-511.14 
			-481.27,-498.71 -465.31,-498.49 		"/>
	</g>
	<g>
		<polygon class="st0" points="-487.17,-476.77 -471.15,-476.77 -467.09,-491.9 -483.14,-491.78 		"/>
	</g>
	<g>
		<polygon class="st0" points="-436.17,-476.77 -420.15,-476.77 -416.01,-492.27 -432.04,-492.15 		"/>
	</g>
	<g>
		<polygon class="st0" points="-376.61,-524.69 -392.63,-524.69 -397.22,-507.79 -411.87,-507.79 -407.28,-524.69 -423.3,-524.69 
			-430.47,-498 -383.95,-497.35 		"/>
	</g>
	<g>
		<polygon class="st0" points="-405.5,-476.77 -389.48,-476.77 -385.26,-492.5 -401.33,-492.38 		"/>
	</g>
	<g>
		<path class="st0" d="M-354.36-489.92c-2.95,0-5.2-1.05-6.69-2.76l-17.67,0.13c2.25,9.75,11.13,16.73,23.26,16.73
			c11.91,0,21.64-7.28,25.89-17.09l-17.85,0.13C-349.23-491.04-351.59-489.92-354.36-489.92z"/>
	</g>
	<g>
		<path class="st0" d="M-363.19-498.95c0-6.02,4.31-12.6,11.02-12.6c5.75,0,8.83,3.97,8.83,9.04c0,1.92-0.44,3.9-1.26,5.71
			l16.33,0.23c0.66-2.38,1.02-4.85,1.02-7.37c0-12.25-9.72-21.7-23.82-21.7c-16.09,0-28.2,13.28-28.2,28.14c0,0.08,0,0.15,0.01,0.23
			l16.24,0.23C-363.14-497.67-363.19-498.3-363.19-498.95z"/>
	</g>
	<g>
		<polygon class="st0" points="-307.81,-500.53 -306.2,-496.27 -289.6,-496.04 -285.49,-500.53 -286.7,-496 -270.8,-495.78 
			-263.03,-524.69 -280.63,-524.69 -295.42,-507.85 -301.17,-524.69 -316.98,-524.69 -324.55,-496.53 -308.94,-496.31 		"/>
	</g>
	<g>
		<polygon class="st0" points="-291.86,-476.77 -275.91,-476.77 -271.46,-493.34 -287.45,-493.22 		"/>
	</g>
	<g>
		<polygon class="st0" points="-329.85,-476.77 -314.17,-476.77 -309.81,-493.06 -325.51,-492.94 		"/>
	</g>
	<g>
		<polygon class="st0" points="-301.37,-483.48 -301.1,-483.48 -292.21,-493.18 -305,-493.09 		"/>
	</g>
	<g>
		<polygon class="st0" points="-223.53,-506.69 -246.95,-506.69 -245.65,-511.55 -220.52,-511.55 -216.96,-524.69 -257.83,-524.69 
			-265.62,-495.71 -226.6,-495.16 		"/>
	</g>
	<g>
		<polygon class="st0" points="-266.24,-493.38 -270.7,-476.77 -229.49,-476.77 -226,-489.92 -251.46,-489.92 -250.48,-493.49 		"/>
	</g>
</g>
<g>
	<path d="M87.74-687.58H28.85L44-744.18h184.67l-15.15,56.6h-58.89l-38.59,143.51H49.14L87.74-687.58z"/>
	<path d="M367.01-744.18h62.61l45.45,95.48l25.73-95.48h66.32l-53.74,200.11h-59.46l-47.46-99.48l-26.87,99.48h-66.32L367.01-744.18
		z"/>
	<path d="M617.39-687.58h-58.73l15.15-56.6h184.52l-15.15,56.6h-58.89L645.7-544.07H578.8L617.39-687.58z"/>
	<path d="M718.88-576.38l38.31-45.74c22.87,19.15,46.31,28.3,67.47,28.3c8.58,0,14.58-3.14,14.58-8.86c0-6.29-3.72-8.29-32.88-19.15
		c-37.16-13.72-54.6-26.87-54.6-56.32c0-38.59,35.45-70.04,90.05-70.04c35.73,0,67.47,11.43,89.19,30.02l-38.31,45.74
		c-15.15-12.29-36.59-22.3-57.75-22.3c-8.58,0-14.58,2.29-14.58,8c0,6,4.29,7.15,32.02,17.44c34.02,12.58,55.75,26.87,55.75,57.46
		c0,40.31-33.16,71.75-90.62,71.75C777.77-540.07,743.18-554.36,718.88-576.38z"/>
	<g>
		<path d="M354.42-742.33c-27.73,0-55.42-0.18-83.21,0.1c-9.33,0.09-19.03,2.87-28.93,10.33c-4.42,3.33-8.52,7.52-11.44,13.75
			c-0.97,2.08-1.8,4.36-2.33,6.54c-11.16,46.14-22.16,92.28-33.45,138.42c-2.35,9.61-1.17,16.14,2.64,21.18
			c4.51,5.98,10.46,9.02,17.06,10.7c1.91,0.49,3.88,0.8,5.83,1.2c2.46,0,4.92,0,7.38,0c2.86-0.53,5.71-0.9,8.6-1.63
			c7.01-1.76,14.01-4.88,20.96-10.61c0.41-0.33,0.86-0.61,1.2-1.05c2.14-2.7,4.15-3.03,6.36-3.01c14.74,0.12,29.52,0.06,44.28,0.06
			c0.52,0,1.05,0,1.69,0c14.93-62,29.84-123.89,44.8-185.99C355.35-742.33,354.89-742.33,354.42-742.33z M238.99-719.12
			c2.87-3.4,6.01-5.54,9.18-7.32c7.82-4.38,15.3-5.69,22.64-5.91c7.24,0.21,14.13,1.43,19.78,5.92c1.83,1.45,3.53,3.29,4.85,5.52
			c3.18,5.39,1.53,11.68-4.27,17.11c-5.3,4.96-10.74,7.51-16.18,9.11c-10.96,3.21-21.04,2.93-29.98-1.53
			c-3.82-1.91-7.24-4.55-9.16-9.59C234.2-710.16,235.26-714.7,238.99-719.12z M306.79-566.52c-12.87,0-25.71,0-38.49,0
			c0.39-1.62,0.75-3.12,1.11-4.61c11.14-46.27,22.25-92.54,33.47-138.81c1.94-7.98,1.25-14.04-1.56-18.93
			c-0.64-1.11-1.36-2.1-2.2-3.4c16.05,0,31.77,0,47.59,0C333.4-677.01,320.11-621.83,306.79-566.52z"/>
		<path d="M252.34-703.96c6.34,4.16,13.77,4.06,22.02,0.7c0.97-0.39,1.96-1.03,2.92-1.74c5.34-3.97,7.02-11.27,3.46-15.06
			c-3.18-3.38-7.52-3.78-12.02-4.04c-1.31,0.11-2.73,0.15-4.18,0.38c-3.19,0.52-6.41,1.39-9.69,3.8
			c-5.15,3.78-6.92,10.79-3.73,14.77C251.48-704.68,251.88-704.26,252.34-703.96z M273.69-712.31c-5.63,1.88-10.58,1.87-15.27,0.03
			C261.48-714.46,271.25-714.52,273.69-712.31z"/>
	</g>
	<polygon points="578.7,-499.24 579.04,-499.23 583.51,-506.21 584.3,-499.16 600.24,-498.94 596.31,-525.04 580.43,-525.04 
		547.3,-476.77 564.75,-476.77 568.93,-483.21 585.7,-483.21 586.52,-476.77 603.57,-476.77 601.33,-491.68 573.41,-491.47 	"/>
	<polygon points="636.09,-511.14 650.19,-511.14 653.82,-524.69 609.6,-524.69 605.97,-511.14 620.07,-511.14 616.73,-498.71 
		632.69,-498.49 	"/>
	<polygon points="610.83,-476.77 626.85,-476.77 630.91,-491.9 614.86,-491.78 	"/>
	<polygon points="661.83,-476.77 677.85,-476.77 681.99,-492.27 665.96,-492.15 	"/>
	<polygon points="721.39,-524.69 705.37,-524.69 700.78,-507.79 686.13,-507.79 690.72,-524.69 674.7,-524.69 667.53,-498 
		714.05,-497.35 	"/>
	<polygon points="692.5,-476.77 708.52,-476.77 712.74,-492.5 696.67,-492.38 	"/>
	<path d="M743.64-489.92c-2.95,0-5.2-1.05-6.69-2.76l-17.67,0.13c2.25,9.75,11.13,16.73,23.26,16.73c11.91,0,21.64-7.28,25.89-17.09
		l-17.85,0.13C748.77-491.04,746.41-489.92,743.64-489.92z"/>
	<path d="M734.81-498.95c0-6.02,4.31-12.6,11.02-12.6c5.75,0,8.83,3.97,8.83,9.04c0,1.92-0.44,3.9-1.26,5.71l16.33,0.23
		c0.66-2.38,1.02-4.85,1.02-7.37c0-12.25-9.72-21.7-23.82-21.7c-16.09,0-28.2,13.28-28.2,28.14c0,0.08,0,0.15,0.01,0.23l16.24,0.23
		C734.86-497.67,734.81-498.3,734.81-498.95z"/>
	<polygon points="790.19,-500.53 791.8,-496.27 808.4,-496.04 812.51,-500.53 811.3,-496 827.2,-495.78 834.97,-524.69 
		817.37,-524.69 802.58,-507.85 796.83,-524.69 781.02,-524.69 773.45,-496.53 789.06,-496.31 	"/>
	<polygon points="806.14,-476.77 822.09,-476.77 826.54,-493.34 810.55,-493.22 	"/>
	<polygon points="768.15,-476.77 783.83,-476.77 788.19,-493.06 772.49,-492.94 	"/>
	<polygon points="796.63,-483.48 796.9,-483.48 805.79,-493.18 793,-493.09 	"/>
	<polygon points="874.47,-506.69 851.05,-506.69 852.35,-511.55 877.48,-511.55 881.04,-524.69 840.17,-524.69 832.38,-495.71 
		871.4,-495.16 	"/>
	<polygon points="831.76,-493.38 827.3,-476.77 868.51,-476.77 872,-489.92 846.54,-489.92 847.52,-493.49 	"/>
</g>
<g>
	<path d="M1187.74-687.58h-58.89l15.15-56.6h184.67l-15.15,56.6h-58.89l-38.59,143.51h-66.89L1187.74-687.58z"/>
	<path d="M1467.01-744.18h62.61l45.45,95.48l25.73-95.48h66.32l-53.74,200.11h-59.46l-47.46-99.48l-26.87,99.48h-66.32
		L1467.01-744.18z"/>
	<path d="M1717.39-687.58h-58.73l15.15-56.6h184.52l-15.15,56.6h-58.89l-38.59,143.51h-66.89L1717.39-687.58z"/>
	<path d="M1818.88-576.38l38.31-45.74c22.87,19.15,46.31,28.3,67.47,28.3c8.58,0,14.58-3.14,14.58-8.86
		c0-6.29-3.72-8.29-32.88-19.15c-37.16-13.72-54.6-26.87-54.6-56.32c0-38.59,35.45-70.04,90.05-70.04
		c35.73,0,67.47,11.43,89.19,30.02l-38.31,45.74c-15.15-12.29-36.59-22.3-57.75-22.3c-8.58,0-14.58,2.29-14.58,8
		c0,6,4.29,7.15,32.02,17.44c34.02,12.58,55.75,26.87,55.75,57.46c0,40.31-33.16,71.75-90.62,71.75
		C1877.77-540.07,1843.18-554.36,1818.88-576.38z"/>
	<g>
		<path d="M1454.42-742.33c-27.73,0-55.42-0.18-83.21,0.1c-9.33,0.09-19.03,2.87-28.93,10.33c-4.42,3.33-8.52,7.52-11.44,13.75
			c-0.97,2.08-1.8,4.36-2.33,6.54c-11.16,46.14-22.16,92.28-33.45,138.42c-2.35,9.61-1.17,16.14,2.64,21.18
			c4.51,5.98,10.46,9.02,17.06,10.7c1.91,0.49,3.88,0.8,5.83,1.2c2.46,0,4.92,0,7.38,0c2.86-0.53,5.71-0.9,8.6-1.63
			c7.01-1.76,14.01-4.88,20.96-10.61c0.41-0.33,0.86-0.61,1.2-1.05c2.14-2.7,4.15-3.03,6.36-3.01c14.74,0.12,29.52,0.06,44.28,0.06
			c0.52,0,1.05,0,1.69,0c14.93-62,29.84-123.89,44.8-185.99C1455.35-742.33,1454.89-742.33,1454.42-742.33z M1338.99-719.12
			c2.87-3.4,6.01-5.54,9.18-7.32c7.82-4.38,15.3-5.69,22.64-5.91c7.24,0.21,14.13,1.43,19.78,5.92c1.83,1.45,3.53,3.29,4.85,5.52
			c3.18,5.39,1.53,11.68-4.27,17.11c-5.3,4.96-10.74,7.51-16.18,9.11c-10.96,3.21-21.04,2.93-29.98-1.53
			c-3.82-1.91-7.24-4.55-9.16-9.59C1334.2-710.16,1335.26-714.7,1338.99-719.12z M1406.79-566.52c-12.87,0-25.71,0-38.49,0
			c0.39-1.62,0.75-3.12,1.11-4.61c11.15-46.27,22.25-92.54,33.47-138.81c1.94-7.98,1.25-14.04-1.56-18.93
			c-0.64-1.11-1.36-2.1-2.2-3.4c16.05,0,31.77,0,47.59,0C1433.4-677.01,1420.11-621.83,1406.79-566.52z"/>
		<path d="M1352.34-703.96c6.34,4.16,13.77,4.06,22.02,0.7c0.97-0.39,1.96-1.03,2.92-1.74c5.34-3.97,7.02-11.27,3.46-15.06
			c-3.18-3.38-7.52-3.78-12.02-4.04c-1.31,0.11-2.73,0.15-4.18,0.38c-3.19,0.52-6.41,1.39-9.69,3.8
			c-5.15,3.78-6.92,10.79-3.73,14.77C1351.48-704.68,1351.88-704.26,1352.34-703.96z M1373.69-712.31
			c-5.63,1.88-10.58,1.87-15.27,0.03C1361.48-714.46,1371.25-714.52,1373.69-712.31z"/>
	</g>
	<g>
		<polygon class="st0" points="1678.7,-499.24 1679.04,-499.23 1683.51,-506.21 1684.3,-499.16 1700.24,-498.94 1696.31,-525.04 
			1680.43,-525.04 1647.3,-476.77 1664.75,-476.77 1668.93,-483.21 1685.7,-483.21 1686.52,-476.77 1703.57,-476.77 
			1701.33,-491.68 1673.41,-491.47 		"/>
	</g>
	<g>
		<polygon class="st0" points="1736.09,-511.14 1750.19,-511.14 1753.82,-524.69 1709.6,-524.69 1705.97,-511.14 1720.07,-511.14 
			1716.73,-498.71 1732.69,-498.49 		"/>
	</g>
	<g>
		<polygon class="st0" points="1710.83,-476.77 1726.85,-476.77 1730.91,-491.9 1714.86,-491.78 		"/>
	</g>
	<g>
		<polygon class="st0" points="1761.83,-476.77 1777.85,-476.77 1781.99,-492.27 1765.96,-492.15 		"/>
	</g>
	<g>
		<polygon class="st0" points="1821.39,-524.69 1805.37,-524.69 1800.78,-507.79 1786.13,-507.79 1790.72,-524.69 1774.7,-524.69 
			1767.53,-498 1814.05,-497.35 		"/>
	</g>
	<g>
		<polygon class="st0" points="1792.5,-476.77 1808.52,-476.77 1812.74,-492.5 1796.67,-492.38 		"/>
	</g>
	<g>
		<path class="st0" d="M1843.64-489.92c-2.95,0-5.2-1.05-6.69-2.76l-17.67,0.13c2.25,9.75,11.13,16.73,23.26,16.73
			c11.91,0,21.64-7.28,25.89-17.09l-17.85,0.13C1848.77-491.04,1846.41-489.92,1843.64-489.92z"/>
	</g>
	<g>
		<path class="st0" d="M1834.81-498.95c0-6.02,4.31-12.6,11.02-12.6c5.75,0,8.83,3.97,8.83,9.04c0,1.92-0.44,3.9-1.26,5.71
			l16.33,0.23c0.66-2.38,1.02-4.85,1.02-7.37c0-12.25-9.72-21.7-23.82-21.7c-16.09,0-28.2,13.28-28.2,28.14
			c0,0.08,0.01,0.15,0.01,0.23l16.24,0.23C1834.86-497.67,1834.81-498.3,1834.81-498.95z"/>
	</g>
	<g>
		<polygon class="st0" points="1890.19,-500.53 1891.8,-496.27 1908.4,-496.04 1912.51,-500.53 1911.3,-496 1927.2,-495.78 
			1934.97,-524.69 1917.37,-524.69 1902.58,-507.85 1896.83,-524.69 1881.02,-524.69 1873.45,-496.53 1889.06,-496.31 		"/>
	</g>
	<g>
		<polygon class="st0" points="1906.14,-476.77 1922.09,-476.77 1926.54,-493.34 1910.55,-493.22 		"/>
	</g>
	<g>
		<polygon class="st0" points="1868.15,-476.77 1883.83,-476.77 1888.19,-493.06 1872.49,-492.94 		"/>
	</g>
	<g>
		<polygon class="st0" points="1896.63,-483.48 1896.9,-483.48 1905.79,-493.18 1893,-493.09 		"/>
	</g>
	<g>
		<polygon class="st0" points="1974.47,-506.69 1951.05,-506.69 1952.35,-511.55 1977.48,-511.55 1981.04,-524.69 1940.17,-524.69 
			1932.38,-495.71 1971.4,-495.16 		"/>
	</g>
	<g>
		<polygon class="st0" points="1931.76,-493.38 1927.3,-476.77 1968.51,-476.77 1972,-489.92 1946.54,-489.92 1947.52,-493.49 		"/>
	</g>
</g>
<g>
	<path class="st1" d="M2287.74-687.58h-58.89l15.15-56.6h184.67l-15.15,56.6h-58.89l-38.59,143.51h-66.89L2287.74-687.58z"/>
	<path class="st1" d="M2567.01-744.18h62.61l45.45,95.48l25.73-95.48h66.32l-53.74,200.11h-59.46l-47.46-99.48l-26.87,99.48h-66.32
		L2567.01-744.18z"/>
	<path class="st1" d="M2817.39-687.58h-58.73l15.15-56.6h184.52l-15.15,56.6h-58.89l-38.59,143.51h-66.89L2817.39-687.58z"/>
	<path class="st1" d="M2918.88-576.38l38.31-45.74c22.87,19.15,46.31,28.3,67.47,28.3c8.58,0,14.58-3.14,14.58-8.86
		c0-6.29-3.72-8.29-32.88-19.15c-37.16-13.72-54.6-26.87-54.6-56.32c0-38.59,35.45-70.04,90.05-70.04
		c35.73,0,67.47,11.43,89.19,30.02l-38.31,45.74c-15.15-12.29-36.59-22.3-57.75-22.3c-8.58,0-14.58,2.29-14.58,8
		c0,6,4.29,7.15,32.02,17.44c34.02,12.58,55.75,26.87,55.75,57.46c0,40.31-33.16,71.75-90.62,71.75
		C2977.77-540.07,2943.18-554.36,2918.88-576.38z"/>
	<g>
		<path class="st1" d="M2554.42-742.33c-27.73,0-55.42-0.18-83.21,0.1c-9.33,0.09-19.03,2.87-28.93,10.33
			c-4.42,3.33-8.52,7.52-11.44,13.75c-0.97,2.08-1.8,4.36-2.33,6.54c-11.16,46.14-22.16,92.28-33.45,138.42
			c-2.35,9.61-1.17,16.14,2.64,21.18c4.51,5.98,10.46,9.02,17.06,10.7c1.91,0.49,3.88,0.8,5.83,1.2c2.46,0,4.92,0,7.38,0
			c2.86-0.53,5.71-0.9,8.6-1.63c7.01-1.76,14.01-4.88,20.96-10.61c0.41-0.33,0.85-0.61,1.2-1.05c2.14-2.7,4.15-3.03,6.36-3.01
			c14.74,0.12,29.52,0.06,44.28,0.06c0.52,0,1.05,0,1.69,0c14.93-62,29.84-123.89,44.8-185.99
			C2555.35-742.33,2554.89-742.33,2554.42-742.33z M2438.99-719.12c2.87-3.4,6.01-5.54,9.18-7.32c7.82-4.38,15.3-5.69,22.64-5.91
			c7.24,0.21,14.13,1.43,19.78,5.92c1.83,1.45,3.53,3.29,4.85,5.52c3.18,5.39,1.53,11.68-4.27,17.11
			c-5.3,4.96-10.74,7.51-16.18,9.11c-10.96,3.21-21.04,2.93-29.98-1.53c-3.82-1.91-7.24-4.55-9.16-9.59
			C2434.2-710.16,2435.26-714.7,2438.99-719.12z M2506.79-566.52c-12.87,0-25.71,0-38.49,0c0.39-1.62,0.75-3.12,1.11-4.61
			c11.14-46.27,22.25-92.54,33.47-138.81c1.94-7.98,1.25-14.04-1.56-18.93c-0.64-1.11-1.36-2.1-2.2-3.4c16.05,0,31.77,0,47.59,0
			C2533.4-677.01,2520.11-621.83,2506.79-566.52z"/>
		<path class="st1" d="M2452.34-703.96c6.34,4.16,13.77,4.06,22.02,0.7c0.97-0.39,1.96-1.03,2.92-1.74
			c5.34-3.97,7.02-11.27,3.46-15.06c-3.18-3.38-7.52-3.78-12.02-4.04c-1.31,0.11-2.73,0.15-4.18,0.38c-3.19,0.52-6.41,1.39-9.69,3.8
			c-5.15,3.78-6.92,10.79-3.73,14.77C2451.48-704.68,2451.88-704.26,2452.34-703.96z M2473.69-712.31
			c-5.63,1.88-10.58,1.87-15.27,0.03C2461.48-714.46,2471.25-714.52,2473.69-712.31z"/>
	</g>
	<g>
		<polygon class="st1" points="2778.7,-499.24 2779.04,-499.23 2783.51,-506.21 2784.3,-499.16 2800.24,-498.94 2796.31,-525.04 
			2780.43,-525.04 2747.3,-476.77 2764.75,-476.77 2768.93,-483.21 2785.7,-483.21 2786.52,-476.77 2803.57,-476.77 
			2801.33,-491.68 2773.41,-491.47 		"/>
	</g>
	<g>
		<polygon class="st1" points="2836.09,-511.14 2850.19,-511.14 2853.82,-524.69 2809.6,-524.69 2805.97,-511.14 2820.07,-511.14 
			2816.73,-498.71 2832.69,-498.49 		"/>
	</g>
	<g>
		<polygon class="st1" points="2810.83,-476.77 2826.85,-476.77 2830.91,-491.9 2814.86,-491.78 		"/>
	</g>
	<g>
		<polygon class="st1" points="2861.83,-476.77 2877.85,-476.77 2881.99,-492.27 2865.96,-492.15 		"/>
	</g>
	<g>
		<polygon class="st1" points="2921.39,-524.69 2905.37,-524.69 2900.78,-507.79 2886.13,-507.79 2890.72,-524.69 2874.7,-524.69 
			2867.53,-498 2914.05,-497.35 		"/>
	</g>
	<g>
		<polygon class="st1" points="2892.5,-476.77 2908.52,-476.77 2912.74,-492.5 2896.67,-492.38 		"/>
	</g>
	<g>
		<path class="st1" d="M2943.64-489.92c-2.95,0-5.2-1.05-6.69-2.76l-17.67,0.13c2.25,9.75,11.13,16.73,23.26,16.73
			c11.91,0,21.64-7.28,25.89-17.09l-17.85,0.13C2948.77-491.04,2946.41-489.92,2943.64-489.92z"/>
	</g>
	<g>
		<path class="st1" d="M2934.81-498.95c0-6.02,4.31-12.6,11.02-12.6c5.75,0,8.83,3.97,8.83,9.04c0,1.92-0.44,3.9-1.26,5.71
			l16.33,0.23c0.66-2.38,1.02-4.85,1.02-7.37c0-12.25-9.72-21.7-23.82-21.7c-16.09,0-28.2,13.28-28.2,28.14c0,0.08,0,0.15,0.01,0.23
			l16.24,0.23C2934.86-497.67,2934.81-498.3,2934.81-498.95z"/>
	</g>
	<g>
		<polygon class="st1" points="2990.19,-500.53 2991.8,-496.27 3008.4,-496.04 3012.51,-500.53 3011.3,-496 3027.2,-495.78 
			3034.97,-524.69 3017.37,-524.69 3002.58,-507.85 2996.83,-524.69 2981.02,-524.69 2973.45,-496.53 2989.06,-496.31 		"/>
	</g>
	<g>
		<polygon class="st1" points="3006.14,-476.77 3022.09,-476.77 3026.54,-493.34 3010.55,-493.22 		"/>
	</g>
	<g>
		<polygon class="st1" points="2968.15,-476.77 2983.83,-476.77 2988.19,-493.06 2972.49,-492.94 		"/>
	</g>
	<g>
		<polygon class="st1" points="2996.63,-483.48 2996.9,-483.48 3005.79,-493.18 2993,-493.09 		"/>
	</g>
	<g>
		<polygon class="st1" points="3074.47,-506.69 3051.05,-506.69 3052.35,-511.55 3077.48,-511.55 3081.04,-524.69 3040.17,-524.69 
			3032.38,-495.71 3071.4,-495.16 		"/>
	</g>
	<g>
		<polygon class="st1" points="3031.76,-493.38 3027.3,-476.77 3068.51,-476.77 3072,-489.92 3046.54,-489.92 3047.52,-493.49 		"/>
	</g>
</g>
<g>
	<path class="st1" d="M3387.74-687.58h-58.89l15.15-56.6h184.67l-15.15,56.6h-58.89l-38.59,143.51h-66.89L3387.74-687.58z"/>
	<path class="st1" d="M3667.01-744.18h62.61l45.45,95.48l25.73-95.48h66.32l-53.74,200.11h-59.46l-47.46-99.48l-26.87,99.48h-66.32
		L3667.01-744.18z"/>
	<path class="st1" d="M3917.39-687.58h-58.73l15.15-56.6h184.52l-15.15,56.6h-58.89l-38.59,143.51h-66.89L3917.39-687.58z"/>
	<path class="st1" d="M4018.88-576.38l38.31-45.74c22.87,19.15,46.31,28.3,67.47,28.3c8.58,0,14.58-3.14,14.58-8.86
		c0-6.29-3.72-8.29-32.88-19.15c-37.16-13.72-54.6-26.87-54.6-56.32c0-38.59,35.45-70.04,90.05-70.04
		c35.73,0,67.47,11.43,89.19,30.02l-38.31,45.74c-15.15-12.29-36.59-22.3-57.75-22.3c-8.58,0-14.58,2.29-14.58,8
		c0,6,4.29,7.15,32.02,17.44c34.02,12.58,55.75,26.87,55.75,57.46c0,40.31-33.16,71.75-90.62,71.75
		C4077.77-540.07,4043.18-554.36,4018.88-576.38z"/>
	<g>
		<path class="st1" d="M3654.42-742.33c-27.73,0-55.42-0.18-83.21,0.1c-9.33,0.09-19.03,2.87-28.93,10.33
			c-4.42,3.33-8.52,7.52-11.44,13.75c-0.97,2.08-1.8,4.36-2.33,6.54c-11.16,46.14-22.16,92.28-33.45,138.42
			c-2.35,9.61-1.17,16.14,2.64,21.18c4.51,5.98,10.46,9.02,17.06,10.7c1.91,0.49,3.88,0.8,5.83,1.2c2.46,0,4.92,0,7.38,0
			c2.86-0.53,5.71-0.9,8.6-1.63c7.01-1.76,14.01-4.88,20.96-10.61c0.41-0.33,0.85-0.61,1.2-1.05c2.14-2.7,4.15-3.03,6.36-3.01
			c14.74,0.12,29.52,0.06,44.28,0.06c0.52,0,1.05,0,1.69,0c14.93-62,29.84-123.89,44.8-185.99
			C3655.35-742.33,3654.89-742.33,3654.42-742.33z M3538.99-719.12c2.87-3.4,6.01-5.54,9.18-7.32c7.82-4.38,15.3-5.69,22.64-5.91
			c7.24,0.21,14.13,1.43,19.78,5.92c1.83,1.45,3.53,3.29,4.85,5.52c3.18,5.39,1.53,11.68-4.27,17.11
			c-5.3,4.96-10.74,7.51-16.18,9.11c-10.96,3.21-21.04,2.93-29.98-1.53c-3.82-1.91-7.24-4.55-9.16-9.59
			C3534.2-710.16,3535.26-714.7,3538.99-719.12z M3606.79-566.52c-12.87,0-25.71,0-38.49,0c0.39-1.62,0.75-3.12,1.11-4.61
			c11.14-46.27,22.25-92.54,33.47-138.81c1.94-7.98,1.25-14.04-1.56-18.93c-0.64-1.11-1.36-2.1-2.2-3.4c16.05,0,31.77,0,47.59,0
			C3633.4-677.01,3620.11-621.83,3606.79-566.52z"/>
		<path class="st1" d="M3552.34-703.96c6.34,4.16,13.77,4.06,22.02,0.7c0.97-0.39,1.96-1.03,2.92-1.74
			c5.34-3.97,7.02-11.27,3.46-15.06c-3.18-3.38-7.52-3.78-12.02-4.04c-1.31,0.11-2.73,0.15-4.18,0.38c-3.19,0.52-6.41,1.39-9.69,3.8
			c-5.15,3.78-6.92,10.79-3.73,14.77C3551.48-704.68,3551.88-704.26,3552.34-703.96z M3573.69-712.31
			c-5.63,1.88-10.58,1.87-15.27,0.03C3561.48-714.46,3571.25-714.52,3573.69-712.31z"/>
	</g>
	<g>
		<polygon class="st0" points="3878.7,-499.24 3879.04,-499.23 3883.51,-506.21 3884.3,-499.16 3900.24,-498.94 3896.31,-525.04 
			3880.43,-525.04 3847.3,-476.77 3864.75,-476.77 3868.93,-483.21 3885.7,-483.21 3886.52,-476.77 3903.57,-476.77 
			3901.33,-491.68 3873.41,-491.47 		"/>
	</g>
	<g>
		<polygon class="st0" points="3936.09,-511.14 3950.19,-511.14 3953.82,-524.69 3909.6,-524.69 3905.97,-511.14 3920.07,-511.14 
			3916.73,-498.71 3932.69,-498.49 		"/>
	</g>
	<g>
		<polygon class="st0" points="3910.83,-476.77 3926.85,-476.77 3930.91,-491.9 3914.86,-491.78 		"/>
	</g>
	<g>
		<polygon class="st0" points="3961.83,-476.77 3977.85,-476.77 3981.99,-492.27 3965.96,-492.15 		"/>
	</g>
	<g>
		<polygon class="st0" points="4021.39,-524.69 4005.37,-524.69 4000.78,-507.79 3986.13,-507.79 3990.72,-524.69 3974.7,-524.69 
			3967.53,-498 4014.05,-497.35 		"/>
	</g>
	<g>
		<polygon class="st0" points="3992.5,-476.77 4008.52,-476.77 4012.74,-492.5 3996.67,-492.38 		"/>
	</g>
	<g>
		<path class="st0" d="M4043.64-489.92c-2.95,0-5.2-1.05-6.69-2.76l-17.67,0.13c2.25,9.75,11.13,16.73,23.26,16.73
			c11.91,0,21.64-7.28,25.89-17.09l-17.85,0.13C4048.77-491.04,4046.41-489.92,4043.64-489.92z"/>
	</g>
	<g>
		<path class="st0" d="M4034.81-498.95c0-6.02,4.31-12.6,11.02-12.6c5.75,0,8.83,3.97,8.83,9.04c0,1.92-0.44,3.9-1.26,5.71
			l16.33,0.23c0.66-2.38,1.02-4.85,1.02-7.37c0-12.25-9.72-21.7-23.82-21.7c-16.09,0-28.2,13.28-28.2,28.14c0,0.08,0,0.15,0.01,0.23
			l16.24,0.23C4034.86-497.67,4034.81-498.3,4034.81-498.95z"/>
	</g>
	<g>
		<polygon class="st0" points="4090.19,-500.53 4091.8,-496.27 4108.4,-496.04 4112.51,-500.53 4111.3,-496 4127.2,-495.78 
			4134.97,-524.69 4117.37,-524.69 4102.58,-507.85 4096.83,-524.69 4081.02,-524.69 4073.45,-496.53 4089.06,-496.31 		"/>
	</g>
	<g>
		<polygon class="st0" points="4106.14,-476.77 4122.09,-476.77 4126.54,-493.34 4110.55,-493.22 		"/>
	</g>
	<g>
		<polygon class="st0" points="4068.15,-476.77 4083.83,-476.77 4088.19,-493.06 4072.49,-492.94 		"/>
	</g>
	<g>
		<polygon class="st0" points="4096.63,-483.48 4096.9,-483.48 4105.79,-493.18 4093,-493.09 		"/>
	</g>
	<g>
		<polygon class="st0" points="4174.47,-506.69 4151.05,-506.69 4152.35,-511.55 4177.48,-511.55 4181.04,-524.69 4140.17,-524.69 
			4132.38,-495.71 4171.4,-495.16 		"/>
	</g>
	<g>
		<polygon class="st0" points="4131.76,-493.38 4127.3,-476.77 4168.51,-476.77 4172,-489.92 4146.54,-489.92 4147.52,-493.49 		"/>
	</g>
</g>
<g>
	<path class="st1" d="M4487.74-687.58h-58.89l15.15-56.6h184.67l-15.15,56.6h-58.89l-38.59,143.51h-66.89L4487.74-687.58z"/>
	<path class="st1" d="M4767.01-744.18h62.61l45.45,95.48l25.73-95.48h66.32l-53.74,200.11h-59.46l-47.46-99.48l-26.87,99.48h-66.32
		L4767.01-744.18z"/>
	<path class="st1" d="M5017.39-687.58h-58.73l15.15-56.6h184.52l-15.15,56.6h-58.89l-38.59,143.51h-66.89L5017.39-687.58z"/>
	<path class="st1" d="M5118.88-576.38l38.31-45.74c22.87,19.15,46.31,28.3,67.47,28.3c8.58,0,14.58-3.14,14.58-8.86
		c0-6.29-3.72-8.29-32.88-19.15c-37.16-13.72-54.6-26.87-54.6-56.32c0-38.59,35.45-70.04,90.05-70.04
		c35.73,0,67.47,11.43,89.19,30.02l-38.31,45.74c-15.15-12.29-36.59-22.3-57.75-22.3c-8.58,0-14.58,2.29-14.58,8
		c0,6,4.29,7.15,32.02,17.44c34.02,12.58,55.75,26.87,55.75,57.46c0,40.31-33.16,71.75-90.62,71.75
		C5177.77-540.07,5143.18-554.36,5118.88-576.38z"/>
	<g>
		<path class="st1" d="M4754.42-742.33c-27.73,0-55.42-0.18-83.21,0.1c-9.33,0.09-19.03,2.87-28.93,10.33
			c-4.42,3.33-8.52,7.52-11.44,13.75c-0.97,2.08-1.8,4.36-2.33,6.54c-11.16,46.14-22.16,92.28-33.45,138.42
			c-2.35,9.61-1.17,16.14,2.64,21.18c4.51,5.98,10.46,9.02,17.06,10.7c1.91,0.49,3.88,0.8,5.83,1.2c2.46,0,4.92,0,7.38,0
			c2.86-0.53,5.71-0.9,8.6-1.63c7.01-1.76,14.01-4.88,20.96-10.61c0.41-0.33,0.85-0.61,1.2-1.05c2.14-2.7,4.15-3.03,6.36-3.01
			c14.74,0.12,29.52,0.06,44.28,0.06c0.52,0,1.05,0,1.69,0c14.93-62,29.84-123.89,44.8-185.99
			C4755.35-742.33,4754.89-742.33,4754.42-742.33z M4638.99-719.12c2.87-3.4,6-5.54,9.18-7.32c7.82-4.38,15.3-5.69,22.64-5.91
			c7.24,0.21,14.13,1.43,19.78,5.92c1.83,1.45,3.53,3.29,4.85,5.52c3.18,5.39,1.53,11.68-4.27,17.11
			c-5.3,4.96-10.74,7.51-16.18,9.11c-10.96,3.21-21.04,2.93-29.98-1.53c-3.82-1.91-7.24-4.55-9.16-9.59
			C4634.2-710.16,4635.26-714.7,4638.99-719.12z M4706.79-566.52c-12.87,0-25.71,0-38.49,0c0.39-1.62,0.75-3.12,1.11-4.61
			c11.15-46.27,22.25-92.54,33.47-138.81c1.94-7.98,1.25-14.04-1.56-18.93c-0.64-1.11-1.36-2.1-2.2-3.4c16.05,0,31.77,0,47.59,0
			C4733.4-677.01,4720.11-621.83,4706.79-566.52z"/>
		<path class="st1" d="M4652.34-703.96c6.34,4.16,13.77,4.06,22.02,0.7c0.97-0.39,1.96-1.03,2.92-1.74
			c5.34-3.97,7.02-11.27,3.46-15.06c-3.18-3.38-7.52-3.78-12.02-4.04c-1.31,0.11-2.73,0.15-4.18,0.38c-3.19,0.52-6.41,1.39-9.69,3.8
			c-5.15,3.78-6.92,10.79-3.73,14.77C4651.48-704.68,4651.88-704.26,4652.34-703.96z M4673.69-712.31
			c-5.63,1.88-10.58,1.87-15.27,0.03C4661.48-714.46,4671.25-714.52,4673.69-712.31z"/>
	</g>
	<g>
		<polygon points="4978.7,-499.24 4979.04,-499.23 4983.51,-506.21 4984.3,-499.16 5000.24,-498.94 4996.31,-525.04 
			4980.43,-525.04 4947.3,-476.77 4964.75,-476.77 4968.93,-483.21 4985.7,-483.21 4986.52,-476.77 5003.57,-476.77 
			5001.33,-491.68 4973.41,-491.47 		"/>
		<polygon points="5036.09,-511.14 5050.19,-511.14 5053.82,-524.69 5009.6,-524.69 5005.97,-511.14 5020.07,-511.14 
			5016.73,-498.71 5032.69,-498.49 		"/>
		<polygon points="5010.83,-476.77 5026.85,-476.77 5030.92,-491.9 5014.86,-491.78 		"/>
		<polygon points="5061.83,-476.77 5077.85,-476.77 5081.99,-492.27 5065.96,-492.15 		"/>
		<polygon points="5121.39,-524.69 5105.37,-524.69 5100.78,-507.79 5086.13,-507.79 5090.72,-524.69 5074.7,-524.69 5067.53,-498 
			5114.05,-497.35 		"/>
		<polygon points="5092.5,-476.77 5108.52,-476.77 5112.74,-492.5 5096.67,-492.38 		"/>
		<path d="M5143.64-489.92c-2.95,0-5.2-1.05-6.69-2.76l-17.67,0.13c2.25,9.75,11.13,16.73,23.26,16.73
			c11.91,0,21.64-7.28,25.89-17.09l-17.85,0.13C5148.77-491.04,5146.41-489.92,5143.64-489.92z"/>
		<path d="M5134.81-498.95c0-6.02,4.31-12.6,11.02-12.6c5.75,0,8.83,3.97,8.83,9.04c0,1.92-0.44,3.9-1.26,5.71l16.33,0.23
			c0.66-2.38,1.02-4.85,1.02-7.37c0-12.25-9.72-21.7-23.82-21.7c-16.09,0-28.2,13.28-28.2,28.14c0,0.08,0,0.15,0.01,0.23l16.24,0.23
			C5134.86-497.67,5134.81-498.3,5134.81-498.95z"/>
		<polygon points="5190.19,-500.53 5191.8,-496.27 5208.4,-496.04 5212.51,-500.53 5211.3,-496 5227.2,-495.78 5234.97,-524.69 
			5217.37,-524.69 5202.58,-507.85 5196.83,-524.69 5181.02,-524.69 5173.45,-496.53 5189.06,-496.31 		"/>
		<polygon points="5206.14,-476.77 5222.09,-476.77 5226.54,-493.34 5210.55,-493.22 		"/>
		<polygon points="5168.15,-476.77 5183.83,-476.77 5188.19,-493.06 5172.49,-492.94 		"/>
		<polygon points="5196.63,-483.48 5196.9,-483.48 5205.79,-493.18 5193,-493.09 		"/>
		<polygon points="5274.47,-506.69 5251.05,-506.69 5252.35,-511.55 5277.48,-511.55 5281.04,-524.69 5240.17,-524.69 
			5232.38,-495.71 5271.4,-495.16 		"/>
		<polygon points="5231.76,-493.38 5227.3,-476.77 5268.51,-476.77 5272,-489.92 5246.54,-489.92 5247.52,-493.49 		"/>
	</g>
</g>
<g>
	<path d="M5587.74-687.58h-58.89l15.15-56.6h184.67l-15.15,56.6h-58.89l-38.59,143.51h-66.89L5587.74-687.58z"/>
	<path d="M5867.01-744.18h62.61l45.45,95.48l25.73-95.48h66.32l-53.74,200.11h-59.46l-47.46-99.48l-26.87,99.48h-66.32
		L5867.01-744.18z"/>
	<path d="M6117.39-687.58h-58.73l15.15-56.6h184.52l-15.15,56.6h-58.89l-38.59,143.51h-66.89L6117.39-687.58z"/>
	<path d="M6218.88-576.38l38.31-45.74c22.87,19.15,46.31,28.3,67.47,28.3c8.58,0,14.58-3.14,14.58-8.86
		c0-6.29-3.72-8.29-32.88-19.15c-37.16-13.72-54.6-26.87-54.6-56.32c0-38.59,35.45-70.04,90.05-70.04
		c35.73,0,67.47,11.43,89.19,30.02l-38.31,45.74c-15.15-12.29-36.59-22.3-57.75-22.3c-8.58,0-14.58,2.29-14.58,8
		c0,6,4.29,7.15,32.02,17.44c34.02,12.58,55.75,26.87,55.75,57.46c0,40.31-33.16,71.75-90.62,71.75
		C6277.77-540.07,6243.18-554.36,6218.88-576.38z"/>
	<g>
		<path d="M5854.42-742.33c-27.73,0-55.42-0.18-83.21,0.1c-9.33,0.09-19.03,2.87-28.93,10.33c-4.42,3.33-8.52,7.52-11.44,13.75
			c-0.97,2.08-1.8,4.36-2.33,6.54c-11.16,46.14-22.16,92.28-33.45,138.42c-2.35,9.61-1.17,16.14,2.64,21.18
			c4.51,5.98,10.46,9.02,17.06,10.7c1.91,0.49,3.88,0.8,5.83,1.2c2.46,0,4.92,0,7.38,0c2.86-0.53,5.71-0.9,8.6-1.63
			c7.01-1.76,14.01-4.88,20.96-10.61c0.41-0.33,0.85-0.61,1.2-1.05c2.14-2.7,4.15-3.03,6.36-3.01c14.74,0.12,29.52,0.06,44.28,0.06
			c0.52,0,1.05,0,1.69,0c14.93-62,29.84-123.89,44.8-185.99C5855.35-742.33,5854.89-742.33,5854.42-742.33z M5738.99-719.12
			c2.87-3.4,6-5.54,9.18-7.32c7.82-4.38,15.3-5.69,22.64-5.91c7.24,0.21,14.13,1.43,19.78,5.92c1.83,1.45,3.53,3.29,4.85,5.52
			c3.18,5.39,1.53,11.68-4.27,17.11c-5.3,4.96-10.74,7.51-16.18,9.11c-10.96,3.21-21.04,2.93-29.98-1.53
			c-3.82-1.91-7.24-4.55-9.16-9.59C5734.2-710.16,5735.26-714.7,5738.99-719.12z M5806.79-566.52c-12.87,0-25.71,0-38.49,0
			c0.39-1.62,0.75-3.12,1.11-4.61c11.15-46.27,22.25-92.54,33.47-138.81c1.94-7.98,1.25-14.04-1.56-18.93
			c-0.64-1.11-1.36-2.1-2.2-3.4c16.05,0,31.77,0,47.59,0C5833.4-677.01,5820.11-621.83,5806.79-566.52z"/>
		<path d="M5752.34-703.96c6.34,4.16,13.77,4.06,22.02,0.7c0.97-0.39,1.96-1.03,2.92-1.74c5.34-3.97,7.02-11.27,3.46-15.06
			c-3.18-3.38-7.52-3.78-12.02-4.04c-1.31,0.11-2.73,0.15-4.18,0.38c-3.19,0.52-6.41,1.39-9.69,3.8
			c-5.15,3.78-6.92,10.79-3.73,14.77C5751.48-704.68,5751.88-704.26,5752.34-703.96z M5773.69-712.31
			c-5.63,1.88-10.58,1.87-15.27,0.03C5761.48-714.46,5771.25-714.52,5773.69-712.31z"/>
	</g>
	<g>
		<polygon class="st1" points="6078.7,-499.24 6079.04,-499.23 6083.51,-506.21 6084.3,-499.16 6100.24,-498.94 6096.31,-525.04 
			6080.43,-525.04 6047.3,-476.77 6064.75,-476.77 6068.93,-483.21 6085.7,-483.21 6086.52,-476.77 6103.57,-476.77 
			6101.33,-491.68 6073.41,-491.47 		"/>
		<polygon class="st1" points="6136.09,-511.14 6150.19,-511.14 6153.82,-524.69 6109.6,-524.69 6105.97,-511.14 6120.07,-511.14 
			6116.73,-498.71 6132.69,-498.49 		"/>
		<polygon class="st1" points="6110.83,-476.77 6126.85,-476.77 6130.92,-491.9 6114.86,-491.78 		"/>
		<polygon class="st1" points="6161.83,-476.77 6177.85,-476.77 6181.99,-492.27 6165.96,-492.15 		"/>
		<polygon class="st1" points="6221.39,-524.69 6205.37,-524.69 6200.78,-507.79 6186.13,-507.79 6190.72,-524.69 6174.7,-524.69 
			6167.53,-498 6214.05,-497.35 		"/>
		<polygon class="st1" points="6192.5,-476.77 6208.52,-476.77 6212.74,-492.5 6196.67,-492.38 		"/>
		<path class="st1" d="M6243.64-489.92c-2.95,0-5.2-1.05-6.69-2.76l-17.67,0.13c2.25,9.75,11.13,16.73,23.26,16.73
			c11.91,0,21.64-7.28,25.89-17.09l-17.85,0.13C6248.77-491.04,6246.41-489.92,6243.64-489.92z"/>
		<path class="st1" d="M6234.81-498.95c0-6.02,4.31-12.6,11.02-12.6c5.75,0,8.83,3.97,8.83,9.04c0,1.92-0.44,3.9-1.26,5.71
			l16.33,0.23c0.66-2.38,1.02-4.85,1.02-7.37c0-12.25-9.72-21.7-23.82-21.7c-16.09,0-28.2,13.28-28.2,28.14c0,0.08,0,0.15,0.01,0.23
			l16.24,0.23C6234.86-497.67,6234.81-498.3,6234.81-498.95z"/>
		<polygon class="st1" points="6290.19,-500.53 6291.8,-496.27 6308.4,-496.04 6312.51,-500.53 6311.3,-496 6327.2,-495.78 
			6334.97,-524.69 6317.37,-524.69 6302.58,-507.85 6296.83,-524.69 6281.02,-524.69 6273.45,-496.53 6289.06,-496.31 		"/>
		<polygon class="st1" points="6306.14,-476.77 6322.09,-476.77 6326.54,-493.34 6310.55,-493.22 		"/>
		<polygon class="st1" points="6268.15,-476.77 6283.83,-476.77 6288.19,-493.06 6272.49,-492.94 		"/>
		<polygon class="st1" points="6296.63,-483.48 6296.9,-483.48 6305.79,-493.18 6293,-493.09 		"/>
		<polygon class="st1" points="6374.47,-506.69 6351.05,-506.69 6352.35,-511.55 6377.48,-511.55 6381.04,-524.69 6340.17,-524.69 
			6332.38,-495.71 6371.4,-495.16 		"/>
		<polygon class="st1" points="6331.76,-493.38 6327.3,-476.77 6368.51,-476.77 6372,-489.92 6346.54,-489.92 6347.52,-493.49 		"/>
	</g>
</g>
<rect x="-1168" y="-6" width="1107" height="1107"/>
<g>
	<path class="st1" d="M-1010.26,464.42h-58.89l15.15-56.6h184.67l-15.15,56.6h-58.89l-38.59,143.51h-66.89L-1010.26,464.42z"/>
	<path class="st1" d="M-730.99,407.82h62.61l45.45,95.48l25.73-95.48h66.32l-53.74,200.11h-59.46l-47.46-99.48l-26.87,99.48h-66.32
		L-730.99,407.82z"/>
	<path class="st1" d="M-480.61,464.42h-58.73l15.15-56.6h184.52l-15.15,56.6h-58.89l-38.59,143.51h-66.89L-480.61,464.42z"/>
	<path class="st1" d="M-379.12,575.62l38.31-45.74c22.87,19.15,46.31,28.3,67.47,28.3c8.58,0,14.58-3.14,14.58-8.86
		c0-6.29-3.72-8.29-32.88-19.15c-37.16-13.72-54.6-26.87-54.6-56.32c0-38.59,35.45-70.04,90.05-70.04
		c35.73,0,67.47,11.43,89.19,30.02l-38.31,45.74c-15.15-12.29-36.59-22.3-57.75-22.3c-8.58,0-14.58,2.29-14.58,8
		c0,6,4.29,7.15,32.02,17.44c34.02,12.58,55.75,26.87,55.75,57.46c0,40.31-33.16,71.75-90.62,71.75
		C-320.23,611.93-354.82,597.64-379.12,575.62z"/>
	<g>
		<path class="st1" d="M-743.58,409.67c-27.73,0-55.42-0.18-83.21,0.1c-9.33,0.09-19.03,2.87-28.93,10.33
			c-4.42,3.33-8.52,7.52-11.44,13.75c-0.97,2.08-1.8,4.36-2.33,6.54c-11.16,46.14-22.16,92.28-33.45,138.42
			c-2.35,9.61-1.17,16.14,2.64,21.18c4.51,5.98,10.46,9.02,17.06,10.7c1.91,0.49,3.88,0.8,5.83,1.2c2.46,0,4.92,0,7.38,0
			c2.86-0.53,5.71-0.9,8.6-1.63c7.01-1.76,14.01-4.88,20.96-10.61c0.41-0.33,0.86-0.61,1.2-1.05c2.14-2.7,4.15-3.03,6.36-3.01
			c14.74,0.12,29.52,0.06,44.28,0.06c0.52,0,1.05,0,1.69,0c14.93-62,29.84-123.89,44.8-185.99
			C-742.65,409.67-743.11,409.67-743.58,409.67z M-859.01,432.88c2.87-3.4,6.01-5.54,9.18-7.32c7.82-4.38,15.3-5.69,22.64-5.91
			c7.24,0.21,14.13,1.43,19.78,5.92c1.83,1.45,3.53,3.29,4.85,5.52c3.18,5.39,1.53,11.68-4.27,17.11
			c-5.3,4.96-10.74,7.51-16.18,9.11c-10.96,3.21-21.04,2.93-29.98-1.53c-3.82-1.91-7.24-4.55-9.16-9.59
			C-863.8,441.84-862.74,437.3-859.01,432.88z M-791.21,585.48c-12.87,0-25.71,0-38.49,0c0.39-1.62,0.75-3.12,1.11-4.61
			c11.14-46.27,22.25-92.54,33.47-138.81c1.94-7.98,1.25-14.04-1.56-18.93c-0.64-1.11-1.36-2.1-2.2-3.4c16.05,0,31.77,0,47.59,0
			C-764.6,474.99-777.89,530.17-791.21,585.48z"/>
		<path class="st1" d="M-845.66,448.04c6.34,4.16,13.77,4.06,22.02,0.7c0.97-0.39,1.96-1.03,2.92-1.74
			c5.34-3.97,7.02-11.27,3.46-15.06c-3.18-3.38-7.52-3.78-12.02-4.04c-1.31,0.11-2.73,0.15-4.18,0.38c-3.19,0.52-6.41,1.39-9.69,3.8
			c-5.15,3.78-6.92,10.79-3.73,14.77C-846.52,447.32-846.12,447.74-845.66,448.04z M-824.31,439.69
			c-5.63,1.88-10.58,1.87-15.27,0.03C-836.52,437.54-826.75,437.48-824.31,439.69z"/>
	</g>
	<g>
		<polygon class="st0" points="-519.3,652.76 -518.96,652.77 -514.49,645.79 -513.7,652.84 -497.76,653.06 -501.69,626.96 
			-517.57,626.96 -550.7,675.23 -533.25,675.23 -529.07,668.79 -512.3,668.79 -511.48,675.23 -494.43,675.23 -496.67,660.32 
			-524.59,660.53 		"/>
	</g>
	<g>
		<polygon class="st0" points="-461.91,640.86 -447.81,640.86 -444.18,627.31 -488.4,627.31 -492.03,640.86 -477.93,640.86 
			-481.27,653.29 -465.31,653.51 		"/>
	</g>
	<g>
		<polygon class="st0" points="-487.17,675.23 -471.15,675.23 -467.09,660.1 -483.14,660.22 		"/>
	</g>
	<g>
		<polygon class="st0" points="-436.17,675.23 -420.15,675.23 -416.01,659.73 -432.04,659.85 		"/>
	</g>
	<g>
		<polygon class="st0" points="-376.61,627.31 -392.63,627.31 -397.22,644.21 -411.87,644.21 -407.28,627.31 -423.3,627.31 
			-430.47,654 -383.95,654.65 		"/>
	</g>
	<g>
		<polygon class="st0" points="-405.5,675.23 -389.48,675.23 -385.26,659.5 -401.33,659.62 		"/>
	</g>
	<g>
		<path class="st0" d="M-354.36,662.08c-2.95,0-5.2-1.05-6.69-2.76l-17.67,0.13c2.25,9.75,11.13,16.73,23.26,16.73
			c11.91,0,21.64-7.28,25.89-17.09l-17.85,0.13C-349.23,660.96-351.59,662.08-354.36,662.08z"/>
	</g>
	<g>
		<path class="st0" d="M-363.19,653.05c0-6.02,4.31-12.6,11.02-12.6c5.75,0,8.83,3.97,8.83,9.04c0,1.92-0.44,3.9-1.26,5.71
			l16.33,0.23c0.66-2.38,1.02-4.85,1.02-7.37c0-12.25-9.72-21.7-23.82-21.7c-16.09,0-28.2,13.28-28.2,28.14c0,0.08,0,0.15,0.01,0.23
			l16.24,0.23C-363.14,654.33-363.19,653.7-363.19,653.05z"/>
	</g>
	<g>
		<polygon class="st0" points="-307.81,651.47 -306.2,655.73 -289.6,655.96 -285.49,651.47 -286.7,656 -270.8,656.22 
			-263.03,627.31 -280.63,627.31 -295.42,644.15 -301.17,627.31 -316.98,627.31 -324.55,655.47 -308.94,655.69 		"/>
	</g>
	<g>
		<polygon class="st0" points="-291.86,675.23 -275.91,675.23 -271.46,658.66 -287.45,658.78 		"/>
	</g>
	<g>
		<polygon class="st0" points="-329.85,675.23 -314.17,675.23 -309.81,658.94 -325.51,659.06 		"/>
	</g>
	<g>
		<polygon class="st0" points="-301.37,668.52 -301.1,668.52 -292.21,658.82 -305,658.91 		"/>
	</g>
	<g>
		<polygon class="st0" points="-223.53,645.31 -246.95,645.31 -245.65,640.45 -220.52,640.45 -216.96,627.31 -257.83,627.31 
			-265.62,656.29 -226.6,656.84 		"/>
	</g>
	<g>
		<polygon class="st0" points="-266.24,658.62 -270.7,675.23 -229.49,675.23 -226,662.08 -251.46,662.08 -250.48,658.51 		"/>
	</g>
</g>
<rect x="-10" y="-6" width="1107" height="1107"/>
<g>
	<path class="st1" d="M147.74,464.42H88.85l15.15-56.6h184.67l-15.15,56.6h-58.89l-38.59,143.51h-66.89L147.74,464.42z"/>
	<path class="st1" d="M427.01,407.82h62.61l45.45,95.48l25.73-95.48h66.32l-53.74,200.11h-59.46l-47.46-99.48l-26.87,99.48h-66.32
		L427.01,407.82z"/>
	<path class="st1" d="M677.39,464.42h-58.73l15.15-56.6h184.52l-15.15,56.6h-58.89L705.7,607.93H638.8L677.39,464.42z"/>
	<path class="st1" d="M778.88,575.62l38.31-45.74c22.87,19.15,46.31,28.3,67.47,28.3c8.58,0,14.58-3.14,14.58-8.86
		c0-6.29-3.72-8.29-32.88-19.15c-37.16-13.72-54.6-26.87-54.6-56.32c0-38.59,35.45-70.04,90.05-70.04
		c35.73,0,67.47,11.43,89.19,30.02l-38.31,45.74c-15.15-12.29-36.59-22.3-57.75-22.3c-8.58,0-14.58,2.29-14.58,8
		c0,6,4.29,7.15,32.02,17.44c34.02,12.58,55.75,26.87,55.75,57.46c0,40.31-33.16,71.75-90.62,71.75
		C837.77,611.93,803.18,597.64,778.88,575.62z"/>
	<g>
		<path class="st1" d="M414.42,409.67c-27.73,0-55.42-0.18-83.21,0.1c-9.33,0.09-19.03,2.87-28.93,10.33
			c-4.42,3.33-8.52,7.52-11.44,13.75c-0.97,2.08-1.8,4.36-2.33,6.54c-11.16,46.14-22.16,92.28-33.45,138.42
			c-2.35,9.61-1.17,16.14,2.64,21.18c4.51,5.98,10.46,9.02,17.06,10.7c1.91,0.49,3.88,0.8,5.83,1.2c2.46,0,4.92,0,7.38,0
			c2.86-0.53,5.71-0.9,8.6-1.63c7.01-1.76,14.01-4.88,20.96-10.61c0.41-0.33,0.86-0.61,1.2-1.05c2.14-2.7,4.15-3.03,6.36-3.01
			c14.74,0.12,29.52,0.06,44.28,0.06c0.52,0,1.05,0,1.69,0c14.93-62,29.84-123.89,44.8-185.99
			C415.35,409.67,414.89,409.67,414.42,409.67z M298.99,432.88c2.87-3.4,6.01-5.54,9.18-7.32c7.82-4.38,15.3-5.69,22.64-5.91
			c7.24,0.21,14.13,1.43,19.78,5.92c1.83,1.45,3.53,3.29,4.85,5.52c3.18,5.39,1.53,11.68-4.27,17.11
			c-5.3,4.96-10.74,7.51-16.18,9.11c-10.96,3.21-21.04,2.93-29.98-1.53c-3.82-1.91-7.24-4.55-9.16-9.59
			C294.2,441.84,295.26,437.3,298.99,432.88z M366.79,585.48c-12.87,0-25.71,0-38.49,0c0.39-1.62,0.75-3.12,1.11-4.61
			c11.14-46.27,22.25-92.54,33.47-138.81c1.94-7.98,1.25-14.04-1.56-18.93c-0.64-1.11-1.36-2.1-2.2-3.4c16.05,0,31.77,0,47.59,0
			C393.4,474.99,380.11,530.17,366.79,585.48z"/>
		<path class="st1" d="M312.34,448.04c6.34,4.16,13.77,4.06,22.02,0.7c0.97-0.39,1.96-1.03,2.92-1.74
			c5.34-3.97,7.02-11.27,3.46-15.06c-3.18-3.38-7.52-3.78-12.02-4.04c-1.31,0.11-2.73,0.15-4.18,0.38c-3.19,0.52-6.41,1.39-9.69,3.8
			c-5.15,3.78-6.92,10.79-3.73,14.77C311.48,447.32,311.88,447.74,312.34,448.04z M333.69,439.69c-5.63,1.88-10.58,1.87-15.27,0.03
			C321.48,437.54,331.25,437.48,333.69,439.69z"/>
	</g>
	<g>
		<polygon class="st1" points="638.7,652.76 639.04,652.77 643.51,645.79 644.3,652.84 660.24,653.06 656.31,626.96 640.43,626.96 
			607.3,675.23 624.75,675.23 628.93,668.79 645.7,668.79 646.52,675.23 663.57,675.23 661.33,660.32 633.41,660.53 		"/>
	</g>
	<g>
		<polygon class="st1" points="696.09,640.86 710.19,640.86 713.82,627.31 669.6,627.31 665.97,640.86 680.07,640.86 676.73,653.29 
			692.69,653.51 		"/>
	</g>
	<g>
		<polygon class="st1" points="670.83,675.23 686.85,675.23 690.91,660.1 674.86,660.22 		"/>
	</g>
	<g>
		<polygon class="st1" points="721.83,675.23 737.85,675.23 741.99,659.73 725.96,659.85 		"/>
	</g>
	<g>
		<polygon class="st1" points="781.39,627.31 765.37,627.31 760.78,644.21 746.13,644.21 750.72,627.31 734.7,627.31 727.53,654 
			774.05,654.65 		"/>
	</g>
	<g>
		<polygon class="st1" points="752.5,675.23 768.52,675.23 772.74,659.5 756.67,659.62 		"/>
	</g>
	<g>
		<path class="st1" d="M803.64,662.08c-2.95,0-5.2-1.05-6.69-2.76l-17.67,0.13c2.25,9.75,11.13,16.73,23.26,16.73
			c11.91,0,21.64-7.28,25.89-17.09l-17.85,0.13C808.77,660.96,806.41,662.08,803.64,662.08z"/>
	</g>
	<g>
		<path class="st1" d="M794.81,653.05c0-6.02,4.31-12.6,11.02-12.6c5.75,0,8.83,3.97,8.83,9.04c0,1.92-0.44,3.9-1.26,5.71
			l16.33,0.23c0.66-2.38,1.02-4.85,1.02-7.37c0-12.25-9.72-21.7-23.82-21.7c-16.09,0-28.2,13.28-28.2,28.14c0,0.08,0,0.15,0.01,0.23
			l16.24,0.23C794.86,654.33,794.81,653.7,794.81,653.05z"/>
	</g>
	<g>
		<polygon class="st1" points="850.19,651.47 851.8,655.73 868.4,655.96 872.51,651.47 871.3,656 887.2,656.22 894.97,627.31 
			877.37,627.31 862.58,644.15 856.83,627.31 841.02,627.31 833.45,655.47 849.06,655.69 		"/>
	</g>
	<g>
		<polygon class="st1" points="866.14,675.23 882.09,675.23 886.54,658.66 870.55,658.78 		"/>
	</g>
	<g>
		<polygon class="st1" points="828.15,675.23 843.83,675.23 848.19,658.94 832.49,659.06 		"/>
	</g>
	<g>
		<polygon class="st1" points="856.63,668.52 856.9,668.52 865.79,658.82 853,658.91 		"/>
	</g>
	<g>
		<polygon class="st1" points="934.47,645.31 911.05,645.31 912.35,640.45 937.48,640.45 941.04,627.31 900.17,627.31 
			892.38,656.29 931.4,656.84 		"/>
	</g>
	<g>
		<polygon class="st1" points="891.76,658.62 887.3,675.23 928.51,675.23 932,662.08 906.54,662.08 907.52,658.51 		"/>
	</g>
</g>
<g>
	<rect x="1158" y="-6" class="st0" width="1107" height="1107"/>
</g>
<g>
	<path class="st1" d="M1315.74,464.42h-58.89l15.15-56.6h184.67l-15.15,56.6h-58.89l-38.59,143.51h-66.89L1315.74,464.42z"/>
	<path class="st1" d="M1595.01,407.82h62.61l45.45,95.48l25.73-95.48h66.32l-53.74,200.11h-59.46l-47.46-99.48l-26.87,99.48h-66.32
		L1595.01,407.82z"/>
	<path class="st1" d="M1845.39,464.42h-58.73l15.15-56.6h184.52l-15.15,56.6h-58.89l-38.59,143.51h-66.89L1845.39,464.42z"/>
	<path class="st1" d="M1946.88,575.62l38.31-45.74c22.87,19.15,46.31,28.3,67.47,28.3c8.58,0,14.58-3.14,14.58-8.86
		c0-6.29-3.72-8.29-32.88-19.15c-37.16-13.72-54.6-26.87-54.6-56.32c0-38.59,35.45-70.04,90.05-70.04
		c35.73,0,67.47,11.43,89.19,30.02l-38.31,45.74c-15.15-12.29-36.59-22.3-57.75-22.3c-8.58,0-14.58,2.29-14.58,8
		c0,6,4.29,7.15,32.02,17.44c34.02,12.58,55.75,26.87,55.75,57.46c0,40.31-33.16,71.75-90.62,71.75
		C2005.77,611.93,1971.18,597.64,1946.88,575.62z"/>
	<g>
		<path class="st1" d="M1582.42,409.67c-27.73,0-55.42-0.18-83.21,0.1c-9.33,0.09-19.03,2.87-28.93,10.33
			c-4.42,3.33-8.52,7.52-11.44,13.75c-0.97,2.08-1.8,4.36-2.33,6.54c-11.16,46.14-22.16,92.28-33.45,138.42
			c-2.35,9.61-1.17,16.14,2.64,21.18c4.51,5.98,10.46,9.02,17.06,10.7c1.91,0.49,3.88,0.8,5.83,1.2c2.46,0,4.92,0,7.38,0
			c2.86-0.53,5.71-0.9,8.6-1.63c7.01-1.76,14.01-4.88,20.96-10.61c0.41-0.33,0.86-0.61,1.2-1.05c2.14-2.7,4.15-3.03,6.36-3.01
			c14.74,0.12,29.52,0.06,44.28,0.06c0.52,0,1.05,0,1.69,0c14.93-62,29.84-123.89,44.8-185.99
			C1583.35,409.67,1582.89,409.67,1582.42,409.67z M1466.99,432.88c2.87-3.4,6.01-5.54,9.18-7.32c7.82-4.38,15.3-5.69,22.64-5.91
			c7.24,0.21,14.13,1.43,19.78,5.92c1.83,1.45,3.53,3.29,4.85,5.52c3.18,5.39,1.53,11.68-4.27,17.11
			c-5.3,4.96-10.74,7.51-16.18,9.11c-10.96,3.21-21.04,2.93-29.98-1.53c-3.82-1.91-7.24-4.55-9.16-9.59
			C1462.2,441.84,1463.26,437.3,1466.99,432.88z M1534.79,585.48c-12.87,0-25.71,0-38.49,0c0.39-1.62,0.75-3.12,1.11-4.61
			c11.15-46.27,22.25-92.54,33.47-138.81c1.94-7.98,1.25-14.04-1.56-18.93c-0.64-1.11-1.36-2.1-2.2-3.4c16.05,0,31.77,0,47.59,0
			C1561.4,474.99,1548.11,530.17,1534.79,585.48z"/>
		<path class="st1" d="M1480.34,448.04c6.34,4.16,13.77,4.06,22.02,0.7c0.97-0.39,1.96-1.03,2.92-1.74
			c5.34-3.97,7.02-11.27,3.46-15.06c-3.18-3.38-7.52-3.78-12.02-4.04c-1.31,0.11-2.73,0.15-4.18,0.38c-3.19,0.52-6.41,1.39-9.69,3.8
			c-5.15,3.78-6.92,10.79-3.73,14.77C1479.48,447.32,1479.88,447.74,1480.34,448.04z M1501.69,439.69
			c-5.63,1.88-10.58,1.87-15.27,0.03C1489.48,437.54,1499.25,437.48,1501.69,439.69z"/>
	</g>
	<g>
		<polygon class="st1" points="1806.7,652.76 1807.04,652.77 1811.51,645.79 1812.3,652.84 1828.24,653.06 1824.31,626.96 
			1808.43,626.96 1775.3,675.23 1792.75,675.23 1796.93,668.79 1813.7,668.79 1814.52,675.23 1831.57,675.23 1829.33,660.32 
			1801.41,660.53 		"/>
	</g>
	<g>
		<polygon class="st1" points="1864.09,640.86 1878.19,640.86 1881.82,627.31 1837.6,627.31 1833.97,640.86 1848.07,640.86 
			1844.73,653.29 1860.69,653.51 		"/>
	</g>
	<g>
		<polygon class="st1" points="1838.83,675.23 1854.85,675.23 1858.91,660.1 1842.86,660.22 		"/>
	</g>
	<g>
		<polygon class="st1" points="1889.83,675.23 1905.85,675.23 1909.99,659.73 1893.96,659.85 		"/>
	</g>
	<g>
		<polygon class="st1" points="1949.39,627.31 1933.37,627.31 1928.78,644.21 1914.13,644.21 1918.72,627.31 1902.7,627.31 
			1895.53,654 1942.05,654.65 		"/>
	</g>
	<g>
		<polygon class="st1" points="1920.5,675.23 1936.52,675.23 1940.74,659.5 1924.67,659.62 		"/>
	</g>
	<g>
		<path class="st1" d="M1971.64,662.08c-2.95,0-5.2-1.05-6.69-2.76l-17.67,0.13c2.25,9.75,11.13,16.73,23.26,16.73
			c11.91,0,21.64-7.28,25.89-17.09l-17.85,0.13C1976.77,660.96,1974.41,662.08,1971.64,662.08z"/>
	</g>
	<g>
		<path class="st1" d="M1962.81,653.05c0-6.02,4.31-12.6,11.02-12.6c5.75,0,8.83,3.97,8.83,9.04c0,1.92-0.44,3.9-1.26,5.71
			l16.33,0.23c0.66-2.38,1.02-4.85,1.02-7.37c0-12.25-9.72-21.7-23.82-21.7c-16.09,0-28.2,13.28-28.2,28.14
			c0,0.08,0.01,0.15,0.01,0.23l16.24,0.23C1962.86,654.33,1962.81,653.7,1962.81,653.05z"/>
	</g>
	<g>
		<polygon class="st1" points="2018.19,651.47 2019.8,655.73 2036.4,655.96 2040.51,651.47 2039.3,656 2055.2,656.22 
			2062.97,627.31 2045.37,627.31 2030.58,644.15 2024.83,627.31 2009.02,627.31 2001.45,655.47 2017.06,655.69 		"/>
	</g>
	<g>
		<polygon class="st1" points="2034.14,675.23 2050.09,675.23 2054.54,658.66 2038.55,658.78 		"/>
	</g>
	<g>
		<polygon class="st1" points="1996.15,675.23 2011.83,675.23 2016.19,658.94 2000.49,659.06 		"/>
	</g>
	<g>
		<polygon class="st1" points="2024.63,668.52 2024.9,668.52 2033.79,658.82 2021,658.91 		"/>
	</g>
	<g>
		<polygon class="st1" points="2102.47,645.31 2079.05,645.31 2080.35,640.45 2105.48,640.45 2109.04,627.31 2068.17,627.31 
			2060.38,656.29 2099.4,656.84 		"/>
	</g>
	<g>
		<polygon class="st1" points="2059.76,658.62 2055.3,675.23 2096.51,675.23 2100,662.08 2074.54,662.08 2075.52,658.51 		"/>
	</g>
</g>
<g>
	<rect x="2380" y="-6" class="st0" width="1107" height="1107"/>
</g>
<g>
	<path class="st1" d="M2537.74,464.42h-58.89l15.15-56.6h184.67l-15.15,56.6h-58.89l-38.59,143.51h-66.89L2537.74,464.42z"/>
	<path class="st1" d="M2817.01,407.82h62.61l45.45,95.48l25.73-95.48h66.32l-53.74,200.11h-59.46l-47.46-99.48l-26.87,99.48h-66.32
		L2817.01,407.82z"/>
	<path class="st1" d="M3067.39,464.42h-58.73l15.15-56.6h184.52l-15.15,56.6h-58.89l-38.59,143.51h-66.89L3067.39,464.42z"/>
	<path class="st1" d="M3168.88,575.62l38.31-45.74c22.87,19.15,46.31,28.3,67.47,28.3c8.58,0,14.58-3.14,14.58-8.86
		c0-6.29-3.72-8.29-32.88-19.15c-37.16-13.72-54.6-26.87-54.6-56.32c0-38.59,35.45-70.04,90.05-70.04
		c35.73,0,67.47,11.43,89.19,30.02l-38.31,45.74c-15.15-12.29-36.59-22.3-57.75-22.3c-8.58,0-14.58,2.29-14.58,8
		c0,6,4.29,7.15,32.02,17.44c34.02,12.58,55.75,26.87,55.75,57.46c0,40.31-33.16,71.75-90.62,71.75
		C3227.77,611.93,3193.18,597.64,3168.88,575.62z"/>
	<g>
		<path class="st1" d="M2804.42,409.67c-27.73,0-55.42-0.18-83.21,0.1c-9.33,0.09-19.03,2.87-28.93,10.33
			c-4.42,3.33-8.52,7.52-11.44,13.75c-0.97,2.08-1.8,4.36-2.33,6.54c-11.16,46.14-22.16,92.28-33.45,138.42
			c-2.35,9.61-1.17,16.14,2.64,21.18c4.51,5.98,10.46,9.02,17.06,10.7c1.91,0.49,3.88,0.8,5.83,1.2c2.46,0,4.92,0,7.38,0
			c2.86-0.53,5.71-0.9,8.6-1.63c7.01-1.76,14.01-4.88,20.96-10.61c0.41-0.33,0.85-0.61,1.2-1.05c2.14-2.7,4.15-3.03,6.36-3.01
			c14.74,0.12,29.52,0.06,44.28,0.06c0.52,0,1.05,0,1.69,0c14.93-62,29.84-123.89,44.8-185.99
			C2805.35,409.67,2804.89,409.67,2804.42,409.67z M2688.99,432.88c2.87-3.4,6.01-5.54,9.18-7.32c7.82-4.38,15.3-5.69,22.64-5.91
			c7.24,0.21,14.13,1.43,19.78,5.92c1.83,1.45,3.53,3.29,4.85,5.52c3.18,5.39,1.53,11.68-4.27,17.11
			c-5.3,4.96-10.74,7.51-16.18,9.11c-10.96,3.21-21.04,2.93-29.98-1.53c-3.82-1.91-7.24-4.55-9.16-9.59
			C2684.2,441.84,2685.26,437.3,2688.99,432.88z M2756.79,585.48c-12.87,0-25.71,0-38.49,0c0.39-1.62,0.75-3.12,1.11-4.61
			c11.14-46.27,22.25-92.54,33.47-138.81c1.94-7.98,1.25-14.04-1.56-18.93c-0.64-1.11-1.36-2.1-2.2-3.4c16.05,0,31.77,0,47.59,0
			C2783.4,474.99,2770.11,530.17,2756.79,585.48z"/>
		<path class="st1" d="M2702.34,448.04c6.34,4.16,13.77,4.06,22.02,0.7c0.97-0.39,1.96-1.03,2.92-1.74
			c5.34-3.97,7.02-11.27,3.46-15.06c-3.18-3.38-7.52-3.78-12.02-4.04c-1.31,0.11-2.73,0.15-4.18,0.38c-3.19,0.52-6.41,1.39-9.69,3.8
			c-5.15,3.78-6.92,10.79-3.73,14.77C2701.48,447.32,2701.88,447.74,2702.34,448.04z M2723.69,439.69
			c-5.63,1.88-10.58,1.87-15.27,0.03C2711.48,437.54,2721.25,437.48,2723.69,439.69z"/>
	</g>
	<g>
		<polygon points="3028.7,652.76 3029.04,652.77 3033.51,645.79 3034.3,652.84 3050.24,653.06 3046.31,626.96 3030.43,626.96 
			2997.3,675.23 3014.75,675.23 3018.93,668.79 3035.7,668.79 3036.52,675.23 3053.57,675.23 3051.33,660.32 3023.41,660.53 		"/>
		<polygon points="3086.09,640.86 3100.19,640.86 3103.82,627.31 3059.6,627.31 3055.97,640.86 3070.07,640.86 3066.73,653.29 
			3082.69,653.51 		"/>
		<polygon points="3060.83,675.23 3076.85,675.23 3080.91,660.1 3064.86,660.22 		"/>
		<polygon points="3111.83,675.23 3127.85,675.23 3131.99,659.73 3115.96,659.85 		"/>
		<polygon points="3171.39,627.31 3155.37,627.31 3150.78,644.21 3136.13,644.21 3140.72,627.31 3124.7,627.31 3117.53,654 
			3164.05,654.65 		"/>
		<polygon points="3142.5,675.23 3158.52,675.23 3162.74,659.5 3146.67,659.62 		"/>
		<path d="M3193.64,662.08c-2.95,0-5.2-1.05-6.69-2.76l-17.67,0.13c2.25,9.75,11.13,16.73,23.26,16.73
			c11.91,0,21.64-7.28,25.89-17.09l-17.85,0.13C3198.77,660.96,3196.41,662.08,3193.64,662.08z"/>
		<path d="M3184.81,653.05c0-6.02,4.31-12.6,11.02-12.6c5.75,0,8.83,3.97,8.83,9.04c0,1.92-0.44,3.9-1.26,5.71l16.33,0.23
			c0.66-2.38,1.02-4.85,1.02-7.37c0-12.25-9.72-21.7-23.82-21.7c-16.09,0-28.2,13.28-28.2,28.14c0,0.08,0,0.15,0.01,0.23l16.24,0.23
			C3184.86,654.33,3184.81,653.7,3184.81,653.05z"/>
		<polygon points="3240.19,651.47 3241.8,655.73 3258.4,655.96 3262.51,651.47 3261.3,656 3277.2,656.22 3284.97,627.31 
			3267.37,627.31 3252.58,644.15 3246.83,627.31 3231.02,627.31 3223.45,655.47 3239.06,655.69 		"/>
		<polygon points="3256.14,675.23 3272.09,675.23 3276.54,658.66 3260.55,658.78 		"/>
		<polygon points="3218.15,675.23 3233.83,675.23 3238.19,658.94 3222.49,659.06 		"/>
		<polygon points="3246.63,668.52 3246.9,668.52 3255.79,658.82 3243,658.91 		"/>
		<polygon points="3324.47,645.31 3301.05,645.31 3302.35,640.45 3327.48,640.45 3331.04,627.31 3290.17,627.31 3282.38,656.29 
			3321.4,656.84 		"/>
		<polygon points="3281.76,658.62 3277.3,675.23 3318.51,675.23 3322,662.08 3296.54,662.08 3297.52,658.51 		"/>
	</g>
</g>
</svg>
