<?xml version="1.0" encoding="utf-8"?>
<!-- Generator: Adobe Illustrator 28.0.0, SVG Export Plug-In . SVG Version: 6.00 Build 0)  -->
<svg version="1.1" id="Capa_1" xmlns="http://www.w3.org/2000/svg" xmlns:xlink="http://www.w3.org/1999/xlink" x="0px" y="0px"
	 viewBox="0 0 1000 1000" style="enable-background:new 0 0 1000 1000;" xml:space="preserve">
<g>
	<path d="M593.88,391.93c0,80.38-0.37,160.76,0.48,241.13c0.1,9.85,4.47,21.47,10.69,29.17c56.18,69.52,62.72,162.55,15.78,239.66
		c-45.89,75.39-131.89,111.8-219.48,92.92c-81.63-17.6-145.64-89.23-157.34-175.27c-8.06-59.31,7.9-111.22,44.94-157.78
		c6.14-7.72,10.4-19.31,10.44-29.13c0.64-158.81,0.25-317.63,0.55-476.44c0.15-77.22,44.63-135.23,113.4-149.46
		c99.2-20.53,179.15,45.86,180.52,149.9c0.01,0.65,0.01,1.3,0.01,1.94C593.88,236.36,593.88,314.14,593.88,391.93z M534.94,405
		c0-61.62,0.14-123.24-0.06-184.86c-0.09-27.87,0.97-55.91-1.74-83.56c-4.25-43.31-41.5-75.05-84.98-75.44
		c-52.48-0.47-89.43,38.83-89.49,96.12c-0.18,166.69-0.16,333.39,0.13,500.08c0.02,12.42-2.86,21.32-12.57,30.31
		c-31.66,29.29-46.94,66.67-45.48,109.65c2.29,67.68,47.62,123.88,110.31,138.97c66.17,15.93,133.26-13.73,165.12-73
		c31.13-57.92,18.94-129.26-28.88-177.25c-6.73-6.75-11.72-18.54-11.82-28.06C534.56,573.64,534.94,489.32,534.94,405z"/>
	<path d="M793.79,612.77c-31.71-23.78-63.37-47.53-95.54-71.67c-12.4-9.3-14.94-26.88-5.67-39.31c0.48-0.65,0.96-1.29,1.44-1.94
		c9.27-12.43,26.84-15.01,39.29-5.78l34.9,25.88c5.41,4.01,13.08,0.15,13.08-6.58V60.32c0-15.53,12.59-28.12,28.12-28.12h1.62
		c15.53,0,28.12,12.59,28.12,28.12v453.47c0,6.71,7.63,10.58,13.04,6.6L888,494.08c12.36-9.08,29.72-6.59,39.02,5.61l1.42,1.87
		c9.47,12.42,7,30.18-5.48,39.55c-31.77,23.87-63.37,47.6-95.38,71.64C817.59,620.26,803.8,620.28,793.79,612.77z"/>
	<path d="M240.32,119.32v0.01c0,15.53-12.59,28.12-28.12,28.12H94.74c-15.53,0-28.12-12.59-28.12-28.12v-0.01
		c0-15.53,12.59-28.12,28.12-28.12h117.45C227.72,91.19,240.32,103.79,240.32,119.32z"/>
	<path d="M95.16,560.07h116.57c15.53,0,28.12,12.59,28.12,28.12v0.43c0,15.53-12.59,28.12-28.12,28.12H95.16
		c-15.53,0-28.12-12.59-28.12-28.12v-0.43C67.03,572.66,79.63,560.07,95.16,560.07z"/>
	<path d="M95.06,326.08h117.13c15.53,0,28.12,12.59,28.12,28.12v0c0,15.53-12.59,28.12-28.12,28.12H95.06
		c-15.53,0-28.12-12.59-28.12-28.12v0C66.94,338.67,79.53,326.08,95.06,326.08z"/>
	<path d="M125.04,236.8v-0.21c0-15.53,12.59-28.12,28.12-28.12h59.21c15.53,0,28.12,12.59,28.12,28.12v0.21
		c0,15.53-12.59,28.12-28.12,28.12h-59.21C137.63,264.93,125.04,252.34,125.04,236.8z"/>
	<path d="M125.11,471.48v-0.04c0-15.53,12.59-28.12,28.12-28.12h58.38c15.53,0,28.12,12.59,28.12,28.12v0.04
		c0,15.53-12.59,28.12-28.12,28.12h-58.38C137.7,499.61,125.11,487.01,125.11,471.48z"/>
	<path d="M439.51,326.25h14.36c12.31,0,22.29,9.98,22.29,22.29c0,0.07,0,0.15,0,0.22c0,114.66,0.19,229.33-0.27,343.99
		c-0.05,12.49,3.31,19.34,14.78,25.63c35.49,19.45,51.02,58.63,40.9,98.07c-9.92,38.63-43.89,65.28-83.84,65.74
		c-39.65,0.46-74.75-25.95-85.16-64.07c-10.74-39.35,4.02-79.26,39.06-98.73c13.01-7.22,15.91-15.38,15.85-29
		c-0.49-113.37-0.28-226.73-0.28-340.1c0-0.58,0-1.16,0-1.74C417.21,336.24,427.19,326.25,439.51,326.25z M447.28,765.49
		c-17.11-0.2-29.9,12.37-29.61,29.08c0.26,15,13.75,28.55,28.72,28.85c15.89,0.32,29.53-13.61,29.23-29.86
		C475.32,777.13,463.75,765.68,447.28,765.49z"/>
</g>
</svg>
