<?xml version="1.0" encoding="utf-8"?>
<!-- Generator: Adobe Illustrator 28.0.0, SVG Export Plug-In . SVG Version: 6.00 Build 0)  -->
<svg version="1.1" id="Capa_1" xmlns="http://www.w3.org/2000/svg" xmlns:xlink="http://www.w3.org/1999/xlink" x="0px" y="0px"
	 viewBox="0 0 1000 1000" style="enable-background:new 0 0 1000 1000;" xml:space="preserve">
<g>
	<path d="M479.96,290.52c43.83-107.76,111.29-154.16,200.84-139.29c79.5,13.2,140.77,80.37,145.89,159.94
		c5.82,90.59-45.62,153.13-155.04,187.11c0,27.27,0.3,55.05-0.06,82.81c-0.69,52.53-12.5,102.67-33.25,150.84
		c-5.21,12.09-12.04,22.42-26.87,16.3c-15.59-6.44-13.64-18.9-7.97-31.88c21.6-49.43,31.01-101.18,30.33-155.1
		c-0.66-52.52-0.54-105.06,0.15-157.58c0.16-12.07-3.55-17.57-14.99-21.71c-84.96-30.72-169.56-62.41-254.56-93
		c-7.94-2.86-18.75-2.56-26.76,0.33c-84.39,30.42-168.57,61.44-252.51,93.07c-6.63,2.5-15.78,10.68-15.85,16.32
		c-0.83,63.9-3.06,127.99,0.79,191.68c8.36,138.15,79.08,239.75,193.3,313.27c19.04,12.26,40.5,20.7,60.1,32.18
		c19.55,11.45,37.27,8.99,57.02-0.37c44.91-21.27,86.82-46.72,123.49-80.42c9.39-8.63,19.89-13.23,29.93-2.65
		c10.62,11.19,5.72,21.83-4.46,31.08c-49.31,44.88-105.71,77.91-168.49,99.96c-5.95,2.09-14.06,1.91-19.97-0.35
		C184.87,923.42,77.92,818.39,39.48,651.85c-5.92-25.67-8.05-52.62-8.56-79.04c-1.22-62.63-0.02-125.3-0.7-187.95
		c-0.19-17.3,6.65-26.26,22.74-32.09c94.46-34.16,188.55-69.35,283.08-103.3c9.15-3.29,21.38-3.11,30.66-0.01
		C404.43,262.06,441.57,276.43,479.96,290.52z M671.75,456.77c72.76-11.08,122.73-74.47,116.83-144.86
		c-5.98-71.31-65.82-125.16-138.03-124.24c-67.04,0.86-127.23,54.32-130.48,116.97c4.8,1.93,9.91,4.11,15.12,6.05
		c39.03,14.49,77.93,29.34,117.19,43.18c14.09,4.97,20.05,13.09,19.58,28.04C671.19,406.48,671.75,431.09,671.75,456.77z"/>
	<path d="M594.8,517.29c-3.03,39.6-1.74,80.12-9.9,118.64c-26.54,125.25-106.07,207.81-220.22,259.57
		c-7.49,3.4-19.1,3.19-26.78-0.08c-119.27-50.8-230.96-168.26-227.91-336.81c0.71-39.19,0.68-78.42-0.16-117.6
		c-0.37-17.31,6.56-26.35,22.65-32.13c68.32-24.52,136.19-50.26,204.58-74.59c8.63-3.07,20.23-3.07,28.86,0
		c68.98,24.54,137.49,50.38,206.35,75.27c14.75,5.33,20.65,14.04,20.06,29.76c-0.97,25.89-0.26,51.84-0.26,77.76
		C592.98,517.15,593.89,517.22,594.8,517.29z M556.21,526.14c-0.74-0.05-1.48-0.11-2.21-0.16c0-22.13-0.61-44.28,0.24-66.37
		c0.46-11.92-3.32-17.46-15.06-21.61c-58.31-20.6-116.08-42.72-174.38-63.36c-8.02-2.84-18.79-2.77-26.83,0.08
		c-58.89,20.85-117.31,43.03-176.14,64.06c-10.89,3.89-14.09,9.59-13.87,20.64c0.65,32.86,0.19,65.75,0.24,98.62
		c0.22,140.56,71.85,234.99,192.69,297.24c5.23,2.7,13.97,3.33,19.07,0.83c97.1-47.59,165.16-120.24,188.09-228.22
		C555.05,594.87,553.72,560.1,556.21,526.14z"/>
	<path d="M671.56,64.2c0,10.1,2.3,20.97-0.73,30.06c-2.41,7.24-11.27,17.04-17.33,17.09c-6.45,0.05-17.88-9.5-18.58-15.81
		c-2.36-21.2-2.37-42.98-0.02-64.18c0.71-6.43,11.97-16.17,18.42-16.19c6.07-0.02,15.25,9.83,17.49,17.07
		C673.84,42.03,671.56,53.47,671.56,64.2z"/>
	<path d="M911.83,341.71c-10.08,0.01-20.93,2.32-29.98-0.72c-7.26-2.44-16.95-11.28-17.09-17.46c-0.14-6.23,9.67-17.46,16.03-18.16
		c21.15-2.31,42.87-2.32,64.01,0.01c6.43,0.71,16.33,11.94,16.2,18.19c-0.12,6.16-9.99,15.14-17.28,17.39
		C933.94,343.98,922.53,341.71,911.83,341.71z"/>
	<path d="M877.36,114.24c-0.67,5.32-0.19,7.89-1.24,8.96c-18.41,18.73-36.53,37.81-56.13,55.23c-2.7,2.4-15.99-1.72-18.85-6.29
		c-3.45-5.5-4.25-17.43-0.55-21.82c14.17-16.83,30.06-32.36,46.56-46.97c4-3.54,13.64-3.92,19.07-1.74
		C871.5,103.75,874.71,111.02,877.36,114.24z"/>
	<path d="M814.49,466.15c12.86-0.36,63.21,51.23,62.28,63.82c-0.91,12.3-14.85,22.84-24,15.45c-19.89-16.03-38.4-34.3-54.79-53.9
		C790.25,482.29,801.93,466.51,814.49,466.15z"/>
	<path d="M443.42,99.05c15.97-0.18,67.15,50.08,65.6,62.06c-0.77,5.92-5.22,13.6-10.2,16.09c-4.97,2.49-14.87,1.96-18.82-1.53
		c-16.52-14.59-32.21-30.27-46.82-46.78c-3.53-3.98-3.98-13.54-1.81-18.9C433.53,104.62,440.74,101.3,443.42,99.05z"/>
	<path d="M576.42,827.9c-8.54-12.33-16.5-18.87-17.4-26.27c-1.37-11.27,6.92-19.07,18.9-18.45c11.66,0.6,19.88,8.1,17.09,19.86
		C593.26,810.4,585.43,816.31,576.42,827.9z"/>
	<path d="M321.99,647.82c41.45-41.52,80.22-80.41,119.07-119.22c4.45-4.45,8.75-10.99,14.07-12.14c7.05-1.53,17.6-1.28,21.9,2.99
		c4.29,4.26,3.74,14.49,3.25,21.97c-0.23,3.51-5.11,6.89-8.21,10c-43.28,43.36-86.54,86.75-129.98,129.95
		c-15.68,15.59-22.92,15.7-38.09,0.82c-18.49-18.13-36.59-36.65-55-54.86c-9.74-9.63-14.5-20.19-3.06-31.02
		c10.6-10.04,20.85-5.31,29.75,3.84C290.6,615.45,305.47,630.81,321.99,647.82z"/>
</g>
</svg>
