<?xml version="1.0" encoding="utf-8"?>
<!-- Generator: Adobe Illustrator 28.0.0, SVG Export Plug-In . SVG Version: 6.00 Build 0)  -->
<svg version="1.1" id="Capa_1" xmlns="http://www.w3.org/2000/svg" xmlns:xlink="http://www.w3.org/1999/xlink" x="0px" y="0px"
	 viewBox="0 0 1000 1000" style="enable-background:new 0 0 1000 1000;" xml:space="preserve">
<g>
	<path d="M40,348.38c20.12-25.59,45.93-44.66,72.79-62.23c77.25-50.52,162.68-79.02,253.38-93.29
		c60.27-9.48,120.89-11.63,181.66-8.56c50.91,2.58,101.22,10.21,150.68,22.79c14.55,3.7,19.49,15.59,12.38,29.94
		c-17.96,36.24-36,72.45-54.32,108.51c-2.75,5.41-2.57,9.24,0.88,14.32c21.05,31.03,41.55,62.44,62.64,93.45
		c5.89,8.65,7.55,16.89,3.61,26.78c-3.81,9.57-6.56,19.57-10.62,31.92c16.62-16.55,31.47-31.03,45.78-46.01
		c1.67-1.75,1.28-6.61,0.33-9.53c-9.8-30.26-19.55-60.54-30.13-90.53c-3.96-11.23-2.06-19.78,5.51-28.64
		c21.1-24.66,41.63-49.82,62.46-74.7c10.75-12.84,17.91-14.07,32.6-6.48c39.04,20.15,75.87,43.54,108.28,73.47
		c2.62,2.42,5.12,4.99,7.83,7.31c8.99,7.69,10.56,16.79,7.42,28.11c-18.39,66.17-36.37,132.46-54.45,198.72
		c-18.78,68.84-37.51,137.7-56.27,206.54c-0.78,2.87-1.44,5.78-2.44,8.58c-4.48,12.53-16.79,17.9-27.99,10.89
		c-53.4-33.44-112.45-50.87-173.77-61.62c-57.39-10.06-115.34-13.11-173.53-10.91c-61.17,2.32-121.58,10.03-180.36,27.86
		c-34.53,10.48-67.94,23.63-98.53,43.2c-14.17,9.07-26.96,4.06-31.49-12.41c-17.89-65.08-35.64-130.19-53.4-195.3
		c-19.24-70.56-38.41-141.15-57.67-211.71c-0.75-2.75-2.17-5.32-3.28-7.97C40,356.72,40,352.55,40,348.38z M820.23,294.44
		c-16.21,19.41-32.07,38.72-48.36,57.65c-4.05,4.71-4.46,8.71-2.5,14.42c10.53,30.65,20.47,61.5,31,92.15
		c3.63,10.56,1.72,18.9-6.29,26.66c-15.61,15.13-30.82,30.68-46.19,46.05c-20.85,20.85-41.65,41.75-62.57,62.53
		c-9.08,9.02-17.85,10.57-26.34,5.06c-8.08-5.24-10.5-13.76-6.68-25.34c10.41-31.63,20.83-63.26,31.62-94.77
		c1.87-5.45,1.15-9.33-1.99-13.97c-20.99-31.08-41.34-62.59-62.68-93.42c-7.79-11.25-8.25-21.06-1.86-32.99
		c12.35-23.06,23.66-46.69,35.37-70.09c4.75-9.5,9.41-19.04,14.38-29.11c-2.11-0.7-3.42-1.38-4.79-1.56
		c-40.38-5.3-80.63-13.13-121.18-15.32c-104.43-5.63-206.85,6.2-305.19,44.04c-54.54,20.98-105.11,48.91-149.32,87.66
		c-5.05,4.42-5.79,8.23-4.06,14.54C111.74,474.72,140.6,580.87,169.54,687c5.13,18.81,10.32,37.6,15.55,56.62
		c153.63-85.11,464.98-88.23,624.98-0.09c3.43-12.41,6.86-24.65,10.2-36.91c30.81-113.02,61.63-226.03,92.2-339.11
		c0.89-3.28,0.35-8.76-1.8-10.77C883.75,331.62,853.01,311.96,820.23,294.44z"/>
	<path d="M211.24,525.63c-11.36-0.12-20.08-10.39-18.02-21.61c0.63-3.44,2.03-6.84,3.6-10c23.85-47.88,47.78-95.73,71.73-143.56
		c1.32-2.64,2.81-5.27,4.63-7.57c5.63-7.09,14.49-9.23,22.38-5.65c8.14,3.69,12.57,12.43,10.47,21.38c-0.73,3.14-2.12,6.19-3.57,9.1
		c-23.88,47.87-47.84,95.7-71.71,143.57C226.68,519.5,221.42,525.85,211.24,525.63z"/>
	<path d="M230.45,356.1c-0.74,2.29-1.44,5.86-3,9.01c-11.96,24.25-24.06,48.43-36.18,72.6c-3.78,7.55-9.92,12.07-18.44,11.84
		c-7.74-0.22-13.94-4.31-16.42-11.66c-1.4-4.17-1.98-9.92-0.2-13.65c12.76-26.8,25.92-53.43,39.63-79.76
		c4.29-8.23,13.29-10.63,21.63-7.95C225.16,338.99,230.68,346.78,230.45,356.1z"/>
</g>
</svg>
